<?xml version="1.0" encoding="iso-8859-1"?>
<!-- Generator: Adobe Illustrator 19.0.0, SVG Export Plug-In . SVG Version: 6.00 Build 0)  -->
<svg version="1.1" id="Layer_1" xmlns="http://www.w3.org/2000/svg" xmlns:xlink="http://www.w3.org/1999/xlink" x="0px" y="0px"
	 viewBox="0 0 496.158 496.158" style="enable-background:new 0 0 496.158 496.158;" xml:space="preserve">
<rect x="269.079" y="171.289" style="fill:#B0CCE2;" width="74.67" height="43.917"/>
<g>
	<rect x="269.079" y="170.449" style="fill:#46729E;" width="74.67" height="6.074"/>
	<path style="fill:#46729E;" d="M336.266,186.06h-30.434c-0.855,0-1.548-0.692-1.548-1.547s0.693-1.548,1.548-1.548h30.434
		c0.854,0,1.548,0.693,1.548,1.548C337.814,185.368,337.121,186.06,336.266,186.06z"/>
	<path style="fill:#46729E;" d="M336.266,197.666h-30.434c-0.855,0-1.548-0.693-1.548-1.548c0-0.854,0.693-1.547,1.548-1.547h30.434
		c0.854,0,1.548,0.693,1.548,1.547C337.814,196.973,337.121,197.666,336.266,197.666z"/>
	<path style="fill:#46729E;" d="M336.266,209.273h-30.434c-0.855,0-1.548-0.693-1.548-1.547c0-0.855,0.693-1.548,1.548-1.548h30.434
		c0.854,0,1.548,0.692,1.548,1.548C337.814,208.579,337.121,209.273,336.266,209.273z"/>
	<rect x="274.879" y="181.419" style="fill:#46729E;" width="22.826" height="29.02"/>
</g>
<path style="fill:#F47C2C;" d="M496.158,248.085c0-137.022-111.07-248.082-248.076-248.082C111.07,0.003,0,111.063,0,248.085
	c0,137.001,111.07,248.07,248.082,248.07C385.088,496.155,496.158,385.086,496.158,248.085z"/>
<g>
	<path style="fill:#D4D6D8;" d="M248.082,496.155c70.204,0,133.589-29.171,178.719-76.042c-2.755-15.131-5.644-28.901-8.284-37.38
		c-8.494-27.279-81.197-49.333-170.825-49.333S86.133,355.454,77.64,382.733c-2.64,8.479-5.529,22.247-8.283,37.377
		C114.486,466.983,177.874,496.155,248.082,496.155z"/>
	<path style="fill:#D4D6D8;" d="M248.163,443.412c19.558,0,41.748-108,41.748-108l-42.154,26.74l-41.512-26.74
		C206.245,335.412,228.604,443.412,248.163,443.412z"/>
	<polygon style="fill:#D4D6D8;" points="210.167,335.412 247.787,363.485 285.991,335.412 287.852,322.246 247.829,316.996 
		208.306,322.246 	"/>
</g>
<path style="fill:#E2A379;" d="M286.969,282.118h-77.78c12.136,36.588,0.978,53.294,0.978,53.294l26.912,6.063h22l26.912-6.062
	C285.991,335.412,274.833,318.706,286.969,282.118z"/>
<g>
	<polygon style="fill:#F3FAFF;" points="282.079,358.746 287.852,322.246 305.745,337.792 	"/>
	<polygon style="fill:#F3FAFF;" points="214.079,358.746 208.306,322.246 190.412,337.792 	"/>
	<path style="fill:#F3FAFF;" d="M305.745,337.792l-17.893-15.547l-39.794,19.229c0,0,34.03,17.28,34.198,17.113L305.745,337.792z"/>
	<path style="fill:#F3FAFF;" d="M190.412,337.792l17.894-15.547l39.753,19.229c0,0-33.989,17.28-34.157,17.113L190.412,337.792z"/>
</g>
<g>
	<polygon style="fill:#4A4A54;" points="248.048,341.475 232.329,349.417 248.048,375.017 263.767,349.417 	"/>
	<path style="fill:#4A4A54;" d="M251.627,361.912h-3.517l-0.026,0.742v-0.742h-3.517c0,0-13.354,15.898-15.396,38.532
		c-1.988,22.04-5.04,70.192-6,94.463c8.193,0.817,16.501,1.247,24.91,1.247c8.419,0,16.738-0.431,24.941-1.25
		c-0.961-24.272-4.013-72.421-6.001-94.46C264.981,377.81,251.627,361.912,251.627,361.912z"/>
</g>
<path style="fill:#F4B382;" d="M336.332,175.175c0-92.429-39.513-113.596-88.252-113.596c-48.741,0-88.254,21.167-88.254,113.596
	c0,31.266,6.19,55.765,15.462,74.673c20.396,41.598,55.7,56.136,72.792,56.136s52.396-14.538,72.79-56.136
	C330.141,230.94,336.332,206.441,336.332,175.175z"/>
<path style="fill:#E5A173;" d="M272.745,261.165c0,2.363-11.043,8.824-24.666,8.824s-24.666-6.461-24.666-8.824
	c0-1.455,7.828-5.624,13.088-6.397c3.284-0.482,11.578,2.653,11.578,2.653s8.18-3.144,11.436-2.674
	C264.855,255.518,272.745,261.165,272.745,261.165z"/>
<path style="fill:#D89364;" d="M272.745,261.165c0,2.363-11.043,11.498-24.666,11.498s-24.666-9.135-24.666-11.498
	c0,0,10.048,1.179,24.666,1.179S272.745,261.165,272.745,261.165z"/>
<path style="fill:#3A3431;" d="M204.002,120.717c0,0,7.283,39.853,35.688,45.256c0,0-9.468-28.369-8.739-39.176
	c0,0,30.589,14.184,40.058,42.553c0,0,3.642-15.535-1.457-39.176c0,0,15.295,8.104,13.838,35.124c0,0,11.653-4.729,12.382-20.264
	c0,0,9.468,14.859,5.098,30.395c0,0,2.186,3.377,6.555-4.053c0,0,17.654,8.703,16.654,37.149c0,0,18.456-23.446,12.75-47.281
	c0,0,5.228,12.834,4.5,21.615c0,0,4.697-19.589-0.401-42.554c0,0,6.555,5.403,8.74,12.834c0,0,8.012-15.536-12.382-29.046
	c0,0,10.197-2.025,11.653,2.703c0,0-5.098-24.992-20.393-31.747c0,0,6.555-2.026,15.295,6.755c0,0-3.642-18.913-25.491-24.992
	c0,0,4.369-2.026,11.653,1.352c0,0-5.827-12.159-24.035-16.212c0,0-1.457-6.078,6.555-5.403c0,0-16.023-7.43-31.318-8.106
	c0,0,5.098-10.806,13.838-10.806c0,0-21.122-6.079-35.688,2.025c0,0-8.012-3.377-2.914-6.079c0,0-39.33-1.351-41.515,19.589
	c0,0-10.925-0.676-20.393-5.404c0,0-9.469,6.755-0.729,14.86c0,0-22.578,0.676-32.775,16.887c0,0,5.099-2.026,11.654-1.351
	c0,0-17.48,8.78-19.666,23.641c0,0,5.098-2.026,10.925-1.352c0,0-10.196,6.079-14.566,18.237c0,0,4.37-1.351,10.925-2.025
	c0,0-22.579,17.562-22.579,42.553c0,0,8.74-13.509,13.838-13.509c0,0-2.914,21.614,2.914,45.931c0,0,3.641-11.482,7.284-10.807
	c0,0-0.729,18.912,10.925,31.746c0,0,0-43.904,8.011-44.581c0,0,4.37,6.08,9.468,10.133
	C190.163,178.131,180.695,124.77,204.002,120.717z"/>
<g>
	<path style="fill:#F4B382;" d="M170.413,238.639c-8.439,1.443-14.352,0.148-19.112-27.698s1.657-31.479,10.096-32.922
		L170.413,238.639z"/>
	<path style="fill:#F4B382;" d="M325.845,238.639c8.438,1.443,14.35,0.148,19.111-27.698s-1.658-31.479-10.096-32.922
		L325.845,238.639z"/>
</g>
<g>
</g>
<g>
</g>
<g>
</g>
<g>
</g>
<g>
</g>
<g>
</g>
<g>
</g>
<g>
</g>
<g>
</g>
<g>
</g>
<g>
</g>
<g>
</g>
<g>
</g>
<g>
</g>
<g>
</g>
</svg>
